PathFileType	4	(X/Y/Z)	E:\Qualisys_Data\Carbon_Farble_Plate\Data\Amateur_Runner\S2\T1\S2T1V13_c3d.trc
DataRate	CameraRate	NumFrames	NumMarkers	Units	OrigDataRate	OrigDataStartFrame	OrigNumFrames
200.000000	200.000000	4	39	mm	200.000000	0	308
Frame#	Time	LSHO			RSHO			LICST			RICST			LASIS			LHEEL			RASIS			LTROC			RTROC			SACR			LTH1			LSK4			LTH2			LTH3			RHM5			LSK2			LTH4			RTH1			LTOE			RTH2			RTH3			RTH4			LLEP			RLEP			LSK1			LSK3			RSK1			LHM5			RSK2			LFT1			RSK3			RSK4			LLME			RLME			RTOE			RHEEL			RFT1			RFT2			LFT2			
		X1	Y1	Z1	X2	Y2	Z2	X3	Y3	Z3	X4	Y4	Z4	X5	Y5	Z5	X6	Y6	Z6	X7	Y7	Z7	X8	Y8	Z8	X9	Y9	Z9	X10	Y10	Z10	X11	Y11	Z11	X12	Y12	Z12	X13	Y13	Z13	X14	Y14	Z14	X15	Y15	Z15	X16	Y16	Z16	X17	Y17	Z17	X18	Y18	Z18	X19	Y19	Z19	X20	Y20	Z20	X21	Y21	Z21	X22	Y22	Z22	X23	Y23	Z23	X24	Y24	Z24	X25	Y25	Z25	X26	Y26	Z26	X27	Y27	Z27	X28	Y28	Z28	X29	Y29	Z29	X30	Y30	Z30	X31	Y31	Z31	X32	Y32	Z32	X33	Y33	Z33	X34	Y34	Z34	X35	Y35	Z35	X36	Y36	Z36	X37	Y37	Z37	X38	Y38	Z38	X39	Y39	Z39	

1	0	-2211.339599609375	1528.07470703125	-456.5824584960938	-2253.663818359375	1510.407104492188	-155.9534301757812	-2292.976318359375	1063.72998046875	-452.8391418457031	-2279.85498046875	1054.553955078125	-157.5550384521484	-2246.742431640625	1008.272277832031	-441.7146301269531	-2795.69775390625	369.8826904296875	-351.5208435058594	-2226.752685546875	1005.77099609375	-188.8011474609375	-2397.314453125	966.7208251953125	-452.9258422851562	-2359.16552734375	950.5208129882812	-140.2982940673828	-2383.84375	1105.837280273438	-305.316650390625	-2366.697998046875	708.495361328125	-466.8482666015625	-2683.822998046875	472.48974609375	-438.4362182617188	-2443.47998046875	740.8399047851562	-462.4460754394531	-2405.87451171875	614.2894287109375	-450.255859375	-1981.858032226562	169.1485748291016	-147.3412628173828	-2610.9150390625	539.447021484375	-452.8123474121094	-2482.44140625	649.2644653320312	-440.0335388183594	-2162.670654296875	708.1371459960938	-141.3980407714844	-2761.754150390625	129.5636749267578	-384.8294067382812	-2240.098388671875	687.995849609375	-138.9305725097656	-2138.45849609375	611.9200439453125	-166.8078918457031	-2217.103271484375	595.1728515625	-159.7886657714844	-2475.20947265625	591.0728759765625	-447.6447448730469	-2176.721435546875	566.6483764648438	-159.7258148193359	-2558.839111328125	481.0316162109375	-456.790283203125	-2633.18017578125	413.9276733398438	-448.9471130371094	-2123.359619140625	453.3910217285156	-155.9586639404297	-2801.995361328125	176.9712066650391	-436.7913818359375	-2202.5869140625	441.76220703125	-147.1290435791016	-2808.580810546875	351.032470703125	-318.9349975585938	-2107.63232421875	353.3130493164062	-165.5484619140625	-2186.720703125	344.3574523925781	-159.0739135742188	-2785.38916015625	320.3070678710938	-415.0499572753906	-2111.070556640625	160.3916320800781	-190.2032470703125	-1934.534423828125	213.7756042480469	-204.2889709472656	-2160.382080078125	120.9869232177734	-251.2005310058594	-2128.495361328125	105.1629867553711	-279.46630859375	-2147.52685546875	96.17891693115234	-225.6928253173828	-2829.39453125	361.5632629394531	-368.3081665039062
2	0.005	-2194.68505859375	1526.862548828125	-456.0052490234375	-2236.8349609375	1508.18701171875	-155.0092315673828	-2277.078125	1063.301391601562	-452.6736450195312	-2264.38037109375	1052.06103515625	-157.6744079589844	-2229.83251953125	1007.498229980469	-441.6036071777344	-2782.15673828125	375.5948181152344	-351.0591735839844	-2209.709716796875	1003.725524902344	-188.6519927978516	-2380.17578125	965.0568237304688	-453.2851257324219	-2343.15234375	948.0350341796876	-140.8541870117188	-2367.403564453125	1104.137573242188	-305.077392578125	-2347.736328125	706.9619750976562	-466.7592468261719	-2667.0341796875	475.2778625488281	-438.10595703125	-2424.347900390625	738.2341918945312	-463.346435546875	-2386.549072265625	612.0877075195312	-451.0504455566406	-1961.661254882812	170.0121002197266	-148.8317413330078	-2592.8984375	540.377197265625	-453.1422424316406	-2463.0400390625	646.9138793945312	-441.117919921875	-2146.332275390625	705.202392578125	-139.9999847412109	-2751.9990234375	134.0949401855469	-387.9965515136719	-2223.5888671875	685.0537109375	-137.9299011230469	-2123.2529296875	609.11083984375	-166.787841796875	-2202.167724609375	592.5451049804688	-160.6454315185547	-2455.864990234375	588.3259887695312	-448.4559020996094	-2160.242431640625	565.1416015625	-159.6295471191406	-2542.332275390625	480.6486511230469	-457.252197265625	-2617.872314453125	415.1199340820312	-448.8565979003906	-2106.125	452.5052795410156	-158.0124206542969	-2791.530517578125	183.5482025146484	-438.4597473144531	-2183.8154296875	439.9110107421875	-147.4998016357422	-2794.443603515625	355.8484191894531	-317.7833862304688	-2089.515625	352.26806640625	-167.3694458007812	-2168.77490234375	342.94091796875	-160.0197143554688	-2772.284912109375	326.0569458007812	-414.5076904296875	-2092.72705078125	159.8632965087891	-191.4148864746094	-1916.075561523438	214.8940124511719	-207.0222473144531	-2141.094970703125	119.8571624755859	-251.9760894775391	-2109.238037109375	103.8023147583008	-280.7396545410156	-2128.5	95.2994384765625	-226.7144012451172	-2815.78515625	367.7012023925781	-367.7112121582031
3	0.01	-2177.722412109375	1525.19873046875	-455.0551452636719	-2220.20361328125	1506.178344726562	-153.803955078125	-2260.585693359375	1062.169921875	-452.67724609375	-2247.6494140625	1049.843994140625	-157.5876312255859	-2212.601806640625	1006.078063964844	-441.8499755859375	-2767.216064453125	380.3832397460938	-349.6903686523438	-2193.755859375	1001.796081542969	-189.4027862548828	-2362.781494140625	963.0269775390624	-453.7669677734375	-2327.19970703125	945.3400268554688	-141.2132873535156	-2350.966552734375	1102.403442382812	-305.2630310058594	-2328.049072265625	704.2774658203125	-466.5912475585938	-2649.792724609375	477.4619750976562	-437.6184692382812	-2405.159423828125	735.4331665039062	-464.2257385253906	-2366.55615234375	609.3964233398438	-451.0483093261719	-1943.36376953125	169.6061859130859	-150.8988647460938	-2573.91015625	540.9608154296875	-453.3419494628906	-2443.3916015625	644.0525512695312	-441.4495544433594	-2129.44677734375	701.5513916015625	-138.2475433349609	-2741.742919921875	138.4575042724609	-389.91455078125	-2207.569580078125	681.443603515625	-136.5576477050781	-2107.0732421875	606.0947875976562	-165.6307525634766	-2185.48095703125	589.4859619140625	-160.0000762939453	-2436.15966796875	585.5357055664062	-449.1661071777344	-2144.542236328125	562.8316040039062	-159.6761016845703	-2524.529052734375	479.2477111816406	-457.8580932617188	-2602.18310546875	416.2068786621094	-448.7615966796875	-2087.510498046875	450.7737121582031	-157.638427734375	-2780.554931640625	189.5284881591797	-439.6795043945312	-2167.31005859375	438.1667785644531	-148.1956024169922	-2779.7216796875	360.0617980957031	-317.004638671875	-2071.620361328125	350.5483093261719	-168.2947998046875	-2151.376220703125	341.0151062011719	-160.8565521240234	-2758.49853515625	330.9524536132812	-414.1566162109375	-2074.16650390625	159.1081390380859	-192.481201171875	-1898.095581054688	214.8794708251953	-209.295654296875	-2121.931640625	117.5082702636719	-252.2364196777344	-2090.905029296875	101.8000717163086	-281.5478210449219	-2109.8525390625	93.52039337158205	-227.4968414306641	-2800.56201171875	373.1336059570312	-366.9046325683594
4	0.015	-2160.962646484375	1523.155151367188	-454.4801330566406	-2203.08251953125	1503.618408203125	-152.9344940185547	-2244.351318359375	1060.6689453125	-453.0247497558594	-2231.78076171875	1047.538696289062	-157.7402954101562	-2196.144775390625	1004.503234863281	-441.9029541015625	-2752.548583984375	385.5110168457031	-348.8946228027344	-2177.79541015625	999.6585693359376	-189.1140441894531	-2345.96484375	960.8703002929688	-454.3375549316406	-2310.97509765625	942.4212036132812	-141.7734069824219	-2334.83447265625	1100.058715820312	-305.0157165527344	-2309.099365234375	702.3887939453125	-467.1123046875	-2631.97265625	479.3226928710938	-437.6562805175781	-2386.104736328125	732.3800659179688	-464.1816711425781	-2346.954345703125	607.2840576171875	-451.7520446777344	-1925.75634765625	169.1715545654297	-152.7518920898438	-2554.099365234375	540.3685913085938	-453.0299987792969	-2423.795654296875	640.6720581054688	-442.6241760253906	-2113.476318359375	699.089111328125	-137.0476684570312	-2731.087158203125	143.9506683349609	-391.0266723632812	-2190.71435546875	678.05322265625	-134.7593688964844	-2091.102783203125	602.8082885742188	-166.1290740966797	-2169.178466796875	586.258544921875	-160.0848999023438	-2415.5947265625	582.7819213867188	-449.9441223144531	-2127.2509765625	560.1029663085938	-160.0740661621094	-2506.9833984375	478.2217407226562	-458.6206665039062	-2585.955322265625	416.8354187011719	-448.9918823242188	-2071.211669921875	449.5379943847656	-159.2302703857422	-2769.06005859375	195.2831726074219	-441.4406127929688	-2149.653564453125	436.3187866210938	-148.8235321044922	-2764.57373046875	364.7902526855469	-316.2377624511719	-2054.222900390625	348.9140319824219	-169.4989471435547	-2133.864013671875	339.2144470214844	-160.9043121337891	-2744.046142578125	336.0658264160156	-413.4962463378906	-2056.461181640625	156.4860229492188	-193.3434295654297	-1881.71533203125	214.2408142089844	-211.8566131591797	-2105.513671875	115.7905197143555	-253.3956909179688	-2074.435791015625	100.2119827270508	-283.1771240234375	-2092.295654296875	91.75509643554688	-228.7905120849609	-2786.064697265625	378.6796264648438	-366.2756958007812
